<mxfile host="app.diagrams.net" agent="Mozilla/5.0 (Windows NT 10.0; Win64; x64; rv:138.0) Gecko/20100101 Firefox/138.0" version="27.0.5">
  <diagram name="Page-1" id="_PLT1W1hKAcj7y4UlVmy">
    <mxGraphModel dx="1965" dy="1178" grid="1" gridSize="10" guides="1" tooltips="1" connect="1" arrows="1" fold="1" page="1" pageScale="1" pageWidth="3300" pageHeight="4681" math="0" shadow="0">
      <root>
        <mxCell id="0" />
        <mxCell id="1" parent="0" />
        <mxCell id="u730CyufX5pWXZZW05M7-3" style="edgeStyle=orthogonalEdgeStyle;rounded=0;orthogonalLoop=1;jettySize=auto;html=1;exitX=1;exitY=0.5;exitDx=0;exitDy=0;entryX=0;entryY=0.5;entryDx=0;entryDy=0;" edge="1" parent="1" source="u730CyufX5pWXZZW05M7-1" target="u730CyufX5pWXZZW05M7-2">
          <mxGeometry relative="1" as="geometry" />
        </mxCell>
        <mxCell id="u730CyufX5pWXZZW05M7-1" value="data:image&#xa;Raw FISH Image" style="rectangle;fillColor=#fff2cc;strokeColor=#d6b656;" name="data" vertex="1" parent="1">
          <mxGeometry x="340" y="230" width="100" height="50" as="geometry" />
        </mxCell>
        <mxCell id="u730CyufX5pWXZZW05M7-5" style="edgeStyle=orthogonalEdgeStyle;rounded=0;orthogonalLoop=1;jettySize=auto;html=1;exitX=1;exitY=0.5;exitDx=0;exitDy=0;entryX=0.5;entryY=0;entryDx=0;entryDy=0;" edge="1" parent="1" source="u730CyufX5pWXZZW05M7-2" target="u730CyufX5pWXZZW05M7-4">
          <mxGeometry relative="1" as="geometry" />
        </mxCell>
        <mxCell id="u730CyufX5pWXZZW05M7-2" value="transform" style="rounded=1;whiteSpace=wrap;html=1;arcSize=50;fillColor=#f8cecc;strokeColor=#b85450;" name="transform" vertex="1" parent="1">
          <mxGeometry x="520" y="230" width="100" height="50" as="geometry" />
        </mxCell>
        <mxCell id="u730CyufX5pWXZZW05M7-7" style="edgeStyle=orthogonalEdgeStyle;rounded=0;orthogonalLoop=1;jettySize=auto;html=1;exitX=0.5;exitY=1;exitDx=0;exitDy=0;entryX=1;entryY=0.5;entryDx=0;entryDy=0;" edge="1" parent="1" source="u730CyufX5pWXZZW05M7-4" target="u730CyufX5pWXZZW05M7-6">
          <mxGeometry relative="1" as="geometry" />
        </mxCell>
        <mxCell id="u730CyufX5pWXZZW05M7-4" value="data:image&#xa;Preprocessed&#xa;Image" style="rectangle;fillColor=#fff2cc;strokeColor=#d6b656;" name="data" vertex="1" parent="1">
          <mxGeometry x="650" y="330" width="100" height="50" as="geometry" />
        </mxCell>
        <mxCell id="u730CyufX5pWXZZW05M7-9" style="edgeStyle=orthogonalEdgeStyle;rounded=0;orthogonalLoop=1;jettySize=auto;html=1;exitX=0;exitY=0.5;exitDx=0;exitDy=0;entryX=0.5;entryY=0;entryDx=0;entryDy=0;" edge="1" parent="1" source="u730CyufX5pWXZZW05M7-6" target="u730CyufX5pWXZZW05M7-8">
          <mxGeometry relative="1" as="geometry" />
        </mxCell>
        <mxCell id="u730CyufX5pWXZZW05M7-6" value="transform" style="rounded=1;whiteSpace=wrap;html=1;arcSize=50;fillColor=#f8cecc;strokeColor=#b85450;" name="transform" vertex="1" parent="1">
          <mxGeometry x="520" y="430" width="100" height="50" as="geometry" />
        </mxCell>
        <mxCell id="u730CyufX5pWXZZW05M7-11" style="edgeStyle=orthogonalEdgeStyle;rounded=0;orthogonalLoop=1;jettySize=auto;html=1;exitX=0.5;exitY=1;exitDx=0;exitDy=0;entryX=0;entryY=0.5;entryDx=0;entryDy=0;" edge="1" parent="1" source="u730CyufX5pWXZZW05M7-8" target="u730CyufX5pWXZZW05M7-10">
          <mxGeometry relative="1" as="geometry" />
        </mxCell>
        <mxCell id="u730CyufX5pWXZZW05M7-8" value="data:numeric&#xa;Extracted&#xa;Quantative Features" style="rectangle;fillColor=#fff2cc;strokeColor=#d6b656;" name="data" vertex="1" parent="1">
          <mxGeometry x="390" y="530" width="100" height="50" as="geometry" />
        </mxCell>
        <mxCell id="u730CyufX5pWXZZW05M7-15" style="edgeStyle=orthogonalEdgeStyle;rounded=0;orthogonalLoop=1;jettySize=auto;html=1;exitX=1;exitY=0.5;exitDx=0;exitDy=0;entryX=0.5;entryY=0;entryDx=0;entryDy=0;" edge="1" parent="1" source="u730CyufX5pWXZZW05M7-10" target="u730CyufX5pWXZZW05M7-13">
          <mxGeometry relative="1" as="geometry" />
        </mxCell>
        <mxCell id="u730CyufX5pWXZZW05M7-10" value="transform" style="rounded=1;whiteSpace=wrap;html=1;arcSize=50;fillColor=#f8cecc;strokeColor=#b85450;" name="transform" vertex="1" parent="1">
          <mxGeometry x="520" y="630" width="100" height="50" as="geometry" />
        </mxCell>
        <mxCell id="u730CyufX5pWXZZW05M7-17" style="edgeStyle=orthogonalEdgeStyle;rounded=0;orthogonalLoop=1;jettySize=auto;html=1;exitX=0.5;exitY=1;exitDx=0;exitDy=0;entryX=0.5;entryY=0;entryDx=0;entryDy=0;" edge="1" parent="1" source="u730CyufX5pWXZZW05M7-13" target="u730CyufX5pWXZZW05M7-16">
          <mxGeometry relative="1" as="geometry" />
        </mxCell>
        <mxCell id="u730CyufX5pWXZZW05M7-13" value="data:numeric&#xa;Normalized&#xa;Features" style="rectangle;fillColor=#fff2cc;strokeColor=#d6b656;" name="data" vertex="1" parent="1">
          <mxGeometry x="650" y="730" width="100" height="50" as="geometry" />
        </mxCell>
        <mxCell id="u730CyufX5pWXZZW05M7-19" style="edgeStyle=orthogonalEdgeStyle;rounded=0;orthogonalLoop=1;jettySize=auto;html=1;exitX=0.5;exitY=1;exitDx=0;exitDy=0;entryX=0.5;entryY=0;entryDx=0;entryDy=0;" edge="1" parent="1" source="u730CyufX5pWXZZW05M7-16" target="u730CyufX5pWXZZW05M7-18">
          <mxGeometry relative="1" as="geometry" />
        </mxCell>
        <mxCell id="u730CyufX5pWXZZW05M7-16" value="generate:train" style="rounded=1;whiteSpace=wrap;html=1;arcSize=50;fillColor=#e1d5e7;strokeColor=#9673a6;" name="generate:train" vertex="1" parent="1">
          <mxGeometry x="650" y="860" width="100" height="50" as="geometry" />
        </mxCell>
        <mxCell id="u730CyufX5pWXZZW05M7-21" style="edgeStyle=orthogonalEdgeStyle;rounded=0;orthogonalLoop=1;jettySize=auto;html=1;exitX=0.5;exitY=1;exitDx=0;exitDy=0;entryX=0.5;entryY=0;entryDx=0;entryDy=0;" edge="1" parent="1" source="u730CyufX5pWXZZW05M7-18" target="u730CyufX5pWXZZW05M7-20">
          <mxGeometry relative="1" as="geometry" />
        </mxCell>
        <mxCell id="u730CyufX5pWXZZW05M7-18" value="model:hybrid&#xa;Fuzzy ARTMAP" style="shape=hexagon;perimeter=hexagonPerimeter2;fillColor=#b0e3e6;strokeColor=#0e8088;" name="model" vertex="1" parent="1">
          <mxGeometry x="640" y="990" width="120" height="50" as="geometry" />
        </mxCell>
        <mxCell id="u730CyufX5pWXZZW05M7-26" style="edgeStyle=orthogonalEdgeStyle;rounded=0;orthogonalLoop=1;jettySize=auto;html=1;exitX=0.5;exitY=1;exitDx=0;exitDy=0;entryX=0.5;entryY=0;entryDx=0;entryDy=0;" edge="1" parent="1" source="u730CyufX5pWXZZW05M7-20" target="u730CyufX5pWXZZW05M7-25">
          <mxGeometry relative="1" as="geometry" />
        </mxCell>
        <mxCell id="u730CyufX5pWXZZW05M7-20" value="infer:deduce" style="rounded=1;whiteSpace=wrap;html=1;arcSize=50;fillColor=#bac8d3;strokeColor=#23445d;" name="infer:deduce" vertex="1" parent="1">
          <mxGeometry x="650" y="1120" width="100" height="50" as="geometry" />
        </mxCell>
        <mxCell id="u730CyufX5pWXZZW05M7-24" style="edgeStyle=orthogonalEdgeStyle;rounded=0;orthogonalLoop=1;jettySize=auto;html=1;exitX=0;exitY=0.5;exitDx=0;exitDy=0;entryX=1;entryY=0.5;entryDx=0;entryDy=0;" edge="1" parent="1" source="u730CyufX5pWXZZW05M7-22" target="u730CyufX5pWXZZW05M7-20">
          <mxGeometry relative="1" as="geometry" />
        </mxCell>
        <mxCell id="u730CyufX5pWXZZW05M7-22" value="data:numeric&#xa;Patient Image&#xa;Vectors" style="rectangle;fillColor=#fff2cc;strokeColor=#d6b656;" name="data" vertex="1" parent="1">
          <mxGeometry x="830" y="1120" width="100" height="50" as="geometry" />
        </mxCell>
        <mxCell id="u730CyufX5pWXZZW05M7-28" style="edgeStyle=orthogonalEdgeStyle;rounded=0;orthogonalLoop=1;jettySize=auto;html=1;exitX=0.5;exitY=1;exitDx=0;exitDy=0;entryX=0.5;entryY=0;entryDx=0;entryDy=0;" edge="1" parent="1" source="u730CyufX5pWXZZW05M7-25" target="u730CyufX5pWXZZW05M7-27">
          <mxGeometry relative="1" as="geometry" />
        </mxCell>
        <mxCell id="u730CyufX5pWXZZW05M7-25" value="symbol&#xa;Raw Classification&#xa;Results" style="rectangle;fillColor=#dae8fc;strokeColor=#6c8ebf;" name="symbol" vertex="1" parent="1">
          <mxGeometry x="650" y="1250" width="100" height="50" as="geometry" />
        </mxCell>
        <mxCell id="u730CyufX5pWXZZW05M7-30" style="edgeStyle=orthogonalEdgeStyle;rounded=0;orthogonalLoop=1;jettySize=auto;html=1;exitX=0.5;exitY=1;exitDx=0;exitDy=0;entryX=0.5;entryY=0;entryDx=0;entryDy=0;" edge="1" parent="1" source="u730CyufX5pWXZZW05M7-27" target="u730CyufX5pWXZZW05M7-29">
          <mxGeometry relative="1" as="geometry" />
        </mxCell>
        <mxCell id="u730CyufX5pWXZZW05M7-27" value="transform" style="rounded=1;whiteSpace=wrap;html=1;arcSize=50;fillColor=#f8cecc;strokeColor=#b85450;" name="transform" vertex="1" parent="1">
          <mxGeometry x="650" y="1380" width="100" height="50" as="geometry" />
        </mxCell>
        <mxCell id="u730CyufX5pWXZZW05M7-29" value="symbol&#xa;Interpretable&#xa;Diagnostic Results" style="rectangle;fillColor=#dae8fc;strokeColor=#6c8ebf;" name="symbol" vertex="1" parent="1" tooltip="⚠️ Node not part of any valid pattern.">
          <mxGeometry x="650" y="1510" width="100" height="50" as="geometry" />
        </mxCell>
      </root>
    </mxGraphModel>
  </diagram>
</mxfile>
